<svg xmlns="http://www.w3.org/2000/svg" width="168" height="158" version="1.0"><path d="M167.625 73a22 22 0 1 1-44 0 22 22 0 1 1 44 0z" fill="#73b1e4"/><path d="M87.625 137.5a20.5 20.5 0 1 1-41 0 20.5 20.5 0 1 1 41 0z" fill="#73b1e4"/><path d="M118.125 83.5a15.5 15.5 0 1 1-31 0 15.5 15.5 0 1 1 31 0z" fill="#135194"/><path d="M83.625 67.5a13.5 13.5 0 1 1-27 0 13.5 13.5 0 1 1 27 0z" fill="#73b1e4"/><path d="M84.625 99a11 11 0 1 1-22 0 11 11 0 1 1 22 0z" fill="#918f90"/><path d="M28.125 65.25C12.807 65.25.375 77.682.375 93s12.432 27.75 27.75 27.75 27.75-12.432 27.75-27.75-12.432-27.75-27.75-27.75zm0 7.75c11.04 0 20 8.96 20 20s-8.96 20-20 20-20-8.96-20-20 8.96-20 20-20z" fill="#135194"/><path d="M43.125 11c-12.42 0-22.5 10.08-22.5 22.5S30.705 56 43.125 56s22.5-10.08 22.5-22.5S55.545 11 43.125 11zm0 6c9.108 0 16.5 7.392 16.5 16.5S52.233 50 43.125 50s-16.5-7.392-16.5-16.5S34.017 17 43.125 17z" fill="#60ba52"/><path d="M103.125 0c-15.18 0-27.5 12.32-27.5 27.5s12.32 27.5 27.5 27.5 27.5-12.32 27.5-27.5S118.305 0 103.125 0zm0 15c6.9 0 12.5 5.6 12.5 12.5s-5.6 12.5-12.5 12.5-12.5-5.6-12.5-12.5 5.6-12.5 12.5-12.5z" fill="#918f90"/><path d="M120.125 103c-12.972 0-23.5 10.528-23.5 23.5s10.528 23.5 23.5 23.5 23.5-10.528 23.5-23.5-10.528-23.5-23.5-23.5zm0 13.5c5.52 0 10 4.48 10 10s-4.48 10-10 10-10-4.48-10-10 4.48-10 10-10z" fill="#60ba52"/></svg>